<mxfile host="app.diagrams.net" modified="2023-04-26T23:36:52.601Z" agent="Mozilla/5.0 (Windows NT 10.0; Win64; x64) AppleWebKit/537.36 (KHTML, like Gecko) Chrome/112.0.0.0 Safari/537.36" etag="T4GxiKxLK4anlkkHB1e3" version="21.2.3" type="github">
  <diagram name="Página-1" id="DZkkju0yXF6ZN-W6qD6m">
    <mxGraphModel dx="880" dy="1303" grid="1" gridSize="10" guides="1" tooltips="1" connect="1" arrows="1" fold="1" page="1" pageScale="1" pageWidth="1169" pageHeight="827" math="0" shadow="0">
      <root>
        <mxCell id="0" />
        <mxCell id="1" parent="0" />
        <mxCell id="5DjNBbd_awgxji2zKDLN-13" value="Mestre" style="shape=umlActor;verticalLabelPosition=bottom;verticalAlign=top;html=1;outlineConnect=0;" parent="1" vertex="1">
          <mxGeometry x="170" y="-446" width="50" height="100" as="geometry" />
        </mxCell>
        <mxCell id="GaGkDE4G5DKLrG1yBPKs-13" value="CSU02&lt;br&gt;Criação de Campanha" style="ellipse;whiteSpace=wrap;html=1;" parent="1" vertex="1">
          <mxGeometry x="300" y="-448" width="255" height="70" as="geometry" />
        </mxCell>
        <mxCell id="GaGkDE4G5DKLrG1yBPKs-29" value="" style="endArrow=none;html=1;rounded=0;exitX=1;exitY=0.3333333333333333;exitDx=0;exitDy=0;exitPerimeter=0;entryX=0;entryY=0.5;entryDx=0;entryDy=0;" parent="1" source="5DjNBbd_awgxji2zKDLN-13" target="GaGkDE4G5DKLrG1yBPKs-13" edge="1">
          <mxGeometry width="50" height="50" relative="1" as="geometry">
            <mxPoint x="240" y="-358" as="sourcePoint" />
            <mxPoint x="290" y="-408" as="targetPoint" />
          </mxGeometry>
        </mxCell>
        <mxCell id="XGzcVqrPjomkn5gd7wKe-1" value="Jogador" style="shape=umlActor;verticalLabelPosition=bottom;verticalAlign=top;html=1;outlineConnect=0;" parent="1" vertex="1">
          <mxGeometry x="640" y="-446" width="50" height="100" as="geometry" />
        </mxCell>
        <mxCell id="XGzcVqrPjomkn5gd7wKe-9" value="CSU01&lt;br&gt;Criação do perfil" style="ellipse;whiteSpace=wrap;html=1;" parent="1" vertex="1">
          <mxGeometry x="300" y="-570" width="255" height="70" as="geometry" />
        </mxCell>
        <mxCell id="XGzcVqrPjomkn5gd7wKe-10" value="" style="endArrow=none;html=1;rounded=0;exitX=1;exitY=0.5;exitDx=0;exitDy=0;entryX=0;entryY=0.3333333333333333;entryDx=0;entryDy=0;entryPerimeter=0;" parent="1" source="XGzcVqrPjomkn5gd7wKe-9" target="XGzcVqrPjomkn5gd7wKe-1" edge="1">
          <mxGeometry width="50" height="50" relative="1" as="geometry">
            <mxPoint x="555" y="-571" as="sourcePoint" />
            <mxPoint x="550" y="-490" as="targetPoint" />
          </mxGeometry>
        </mxCell>
        <mxCell id="XGzcVqrPjomkn5gd7wKe-11" value="" style="endArrow=none;html=1;rounded=0;entryX=0;entryY=0.5;entryDx=0;entryDy=0;exitX=1;exitY=0.3333333333333333;exitDx=0;exitDy=0;exitPerimeter=0;" parent="1" source="5DjNBbd_awgxji2zKDLN-13" target="XGzcVqrPjomkn5gd7wKe-9" edge="1">
          <mxGeometry width="50" height="50" relative="1" as="geometry">
            <mxPoint x="500" y="-440" as="sourcePoint" />
            <mxPoint x="550" y="-490" as="targetPoint" />
          </mxGeometry>
        </mxCell>
        <mxCell id="dxLZRv5HpvWCEgW7lB1y-11" value="CSU03&lt;br&gt;Alugar Sala" style="ellipse;whiteSpace=wrap;html=1;" parent="1" vertex="1">
          <mxGeometry x="300" y="-340" width="255" height="70" as="geometry" />
        </mxCell>
        <mxCell id="dxLZRv5HpvWCEgW7lB1y-12" value="" style="endArrow=none;html=1;rounded=0;entryX=0;entryY=0.3333333333333333;entryDx=0;entryDy=0;entryPerimeter=0;exitX=1;exitY=0.5;exitDx=0;exitDy=0;" parent="1" source="dxLZRv5HpvWCEgW7lB1y-11" target="XGzcVqrPjomkn5gd7wKe-1" edge="1">
          <mxGeometry width="50" height="50" relative="1" as="geometry">
            <mxPoint x="500" y="-360" as="sourcePoint" />
            <mxPoint x="550" y="-410" as="targetPoint" />
          </mxGeometry>
        </mxCell>
        <mxCell id="dxLZRv5HpvWCEgW7lB1y-13" value="" style="endArrow=none;html=1;rounded=0;entryX=1;entryY=0.3333333333333333;entryDx=0;entryDy=0;entryPerimeter=0;exitX=0;exitY=0.5;exitDx=0;exitDy=0;" parent="1" source="dxLZRv5HpvWCEgW7lB1y-11" target="5DjNBbd_awgxji2zKDLN-13" edge="1">
          <mxGeometry width="50" height="50" relative="1" as="geometry">
            <mxPoint x="565" y="-85" as="sourcePoint" />
            <mxPoint x="660" y="-403" as="targetPoint" />
          </mxGeometry>
        </mxCell>
      </root>
    </mxGraphModel>
  </diagram>
</mxfile>
